<svg width="221" height="43" viewBox="0 0 221 43" fill="none" xmlns="http://www.w3.org/2000/svg">
<rect width="221" height="43" rx="16" fill="#01A4FF"/>
<path d="M23.5781 14H27.125L31.875 25.5937H32.0625L36.8125 14H40.3594V30H37.5781V19.0078H37.4297L33.0078 29.9531H30.9297L26.5078 18.9844H26.3594V30H23.5781V14ZM46.8438 30.2422C46.0833 30.2422 45.3984 30.1068 44.7891 29.8359C44.1849 29.5599 43.7057 29.1536 43.3516 28.6172C43.0026 28.0807 42.8281 27.4193 42.8281 26.6328C42.8281 25.9557 42.9531 25.3958 43.2031 24.9531C43.4531 24.5104 43.7943 24.1562 44.2266 23.8906C44.6589 23.625 45.1458 23.4245 45.6875 23.2891C46.2344 23.1484 46.7995 23.0469 47.3828 22.9844C48.0859 22.9115 48.6563 22.8464 49.0938 22.7891C49.5313 22.7266 49.849 22.6328 50.0469 22.5078C50.25 22.3776 50.3516 22.1771 50.3516 21.9062V21.8594C50.3516 21.2708 50.1771 20.8151 49.8281 20.4922C49.4792 20.1693 48.9766 20.0078 48.3203 20.0078C47.6276 20.0078 47.0781 20.1589 46.6719 20.4609C46.2708 20.763 46 21.1198 45.8594 21.5312L43.2188 21.1562C43.4271 20.4271 43.7708 19.8177 44.25 19.3281C44.7292 18.8333 45.3151 18.4635 46.0078 18.2187C46.7005 17.9688 47.4661 17.8438 48.3047 17.8438C48.8828 17.8438 49.4583 17.9115 50.0313 18.0469C50.6042 18.1823 51.1276 18.4062 51.6016 18.7187C52.0755 19.026 52.4557 19.4453 52.7422 19.9766C53.0339 20.5078 53.1797 21.1719 53.1797 21.9687V30H50.4609V28.3516H50.3672C50.1953 28.6849 49.9531 28.9974 49.6406 29.2891C49.3333 29.5755 48.9453 29.8073 48.4766 29.9844C48.013 30.1563 47.4688 30.2422 46.8438 30.2422ZM47.5781 28.1641C48.1458 28.1641 48.638 28.0521 49.0547 27.8281C49.4714 27.599 49.7917 27.2969 50.0156 26.9219C50.2448 26.5469 50.3594 26.138 50.3594 25.6953V24.2812C50.2708 24.3542 50.1198 24.4219 49.9062 24.4844C49.6979 24.5469 49.4635 24.6016 49.2031 24.6484C48.9427 24.6953 48.6849 24.737 48.4297 24.7734C48.1745 24.8099 47.9531 24.8411 47.7656 24.8672C47.3438 24.9245 46.9661 25.0182 46.6328 25.1484C46.2995 25.2786 46.0365 25.4609 45.8438 25.6953C45.651 25.9245 45.5547 26.2214 45.5547 26.5859C45.5547 27.1068 45.7448 27.5 46.125 27.7656C46.5052 28.0312 46.9896 28.1641 47.5781 28.1641ZM58.6016 26.2344L58.5938 22.8203H59.0469L63.3594 18H66.6641L61.3594 23.9062H60.7734L58.6016 26.2344ZM56.0234 30V14H58.8516V30H56.0234ZM63.5547 30L59.6484 24.5391L61.5547 22.5469L66.9375 30H63.5547ZM72.002 30.2422C71.2415 30.2422 70.5566 30.1068 69.9473 29.8359C69.3431 29.5599 68.8639 29.1536 68.5098 28.6172C68.1608 28.0807 67.9863 27.4193 67.9863 26.6328C67.9863 25.9557 68.1113 25.3958 68.3613 24.9531C68.6113 24.5104 68.9525 24.1562 69.3848 23.8906C69.8171 23.625 70.304 23.4245 70.8457 23.2891C71.3926 23.1484 71.9577 23.0469 72.541 22.9844C73.2441 22.9115 73.8145 22.8464 74.252 22.7891C74.6895 22.7266 75.0072 22.6328 75.2051 22.5078C75.4082 22.3776 75.5098 22.1771 75.5098 21.9062V21.8594C75.5098 21.2708 75.3353 20.8151 74.9863 20.4922C74.6374 20.1693 74.1348 20.0078 73.4785 20.0078C72.7858 20.0078 72.2363 20.1589 71.8301 20.4609C71.429 20.763 71.1582 21.1198 71.0176 21.5312L68.377 21.1562C68.5853 20.4271 68.929 19.8177 69.4082 19.3281C69.8874 18.8333 70.4733 18.4635 71.166 18.2187C71.8587 17.9688 72.6243 17.8438 73.4629 17.8438C74.041 17.8438 74.6165 17.9115 75.1895 18.0469C75.7624 18.1823 76.2858 18.4062 76.7598 18.7187C77.2337 19.026 77.6139 19.4453 77.9004 19.9766C78.1921 20.5078 78.3379 21.1719 78.3379 21.9687V30H75.6191V28.3516H75.5254C75.3535 28.6849 75.1113 28.9974 74.7988 29.2891C74.4915 29.5755 74.1035 29.8073 73.6348 29.9844C73.1712 30.1563 72.627 30.2422 72.002 30.2422ZM72.7363 28.1641C73.304 28.1641 73.7962 28.0521 74.2129 27.8281C74.6296 27.599 74.9499 27.2969 75.1738 26.9219C75.403 26.5469 75.5176 26.138 75.5176 25.6953V24.2812C75.429 24.3542 75.278 24.4219 75.0645 24.4844C74.8561 24.5469 74.6217 24.6016 74.3613 24.6484C74.1009 24.6953 73.8431 24.737 73.5879 24.7734C73.3327 24.8099 73.1113 24.8411 72.9238 24.8672C72.502 24.9245 72.1243 25.0182 71.791 25.1484C71.4577 25.2786 71.1947 25.4609 71.002 25.6953C70.8092 25.9245 70.7129 26.2214 70.7129 26.5859C70.7129 27.1068 70.903 27.5 71.2832 27.7656C71.6634 28.0312 72.1478 28.1641 72.7363 28.1641ZM84.0098 22.9687V30H81.1816V18H83.8848V20.0391H84.0254C84.3014 19.3672 84.7415 18.8333 85.3457 18.4375C85.9551 18.0417 86.7077 17.8438 87.6035 17.8438C88.4316 17.8438 89.153 18.0208 89.7676 18.375C90.3874 18.7292 90.8665 19.2422 91.2051 19.9141C91.5488 20.5859 91.7181 21.401 91.7129 22.3594V30H88.8848V22.7969C88.8848 21.9948 88.6764 21.3672 88.2598 20.9141C87.8483 20.4609 87.278 20.2344 86.5488 20.2344C86.054 20.2344 85.6139 20.3437 85.2285 20.5625C84.8483 20.776 84.5488 21.0859 84.3301 21.4922C84.1165 21.8984 84.0098 22.3906 84.0098 22.9687ZM98.041 30.2422C97.2806 30.2422 96.5957 30.1068 95.9863 29.8359C95.3822 29.5599 94.903 29.1536 94.5488 28.6172C94.1999 28.0807 94.0254 27.4193 94.0254 26.6328C94.0254 25.9557 94.1504 25.3958 94.4004 24.9531C94.6504 24.5104 94.9915 24.1562 95.4238 23.8906C95.8561 23.625 96.3431 23.4245 96.8848 23.2891C97.4316 23.1484 97.9967 23.0469 98.5801 22.9844C99.2832 22.9115 99.8535 22.8464 100.291 22.7891C100.729 22.7266 101.046 22.6328 101.244 22.5078C101.447 22.3776 101.549 22.1771 101.549 21.9062V21.8594C101.549 21.2708 101.374 20.8151 101.025 20.4922C100.676 20.1693 100.174 20.0078 99.5176 20.0078C98.8249 20.0078 98.2754 20.1589 97.8691 20.4609C97.4681 20.763 97.1973 21.1198 97.0566 21.5312L94.416 21.1562C94.6243 20.4271 94.9681 19.8177 95.4473 19.3281C95.9264 18.8333 96.5124 18.4635 97.2051 18.2187C97.8978 17.9688 98.6634 17.8438 99.502 17.8438C100.08 17.8438 100.656 17.9115 101.229 18.0469C101.801 18.1823 102.325 18.4062 102.799 18.7187C103.273 19.026 103.653 19.4453 103.939 19.9766C104.231 20.5078 104.377 21.1719 104.377 21.9687V30H101.658V28.3516H101.564C101.393 28.6849 101.15 28.9974 100.838 29.2891C100.531 29.5755 100.143 29.8073 99.6738 29.9844C99.2103 30.1563 98.666 30.2422 98.041 30.2422ZM98.7754 28.1641C99.3431 28.1641 99.8353 28.0521 100.252 27.8281C100.669 27.599 100.989 27.2969 101.213 26.9219C101.442 26.5469 101.557 26.138 101.557 25.6953V24.2812C101.468 24.3542 101.317 24.4219 101.104 24.4844C100.895 24.5469 100.661 24.6016 100.4 24.6484C100.14 24.6953 99.8822 24.737 99.627 24.7734C99.3717 24.8099 99.1504 24.8411 98.9629 24.8672C98.541 24.9245 98.1634 25.0182 97.8301 25.1484C97.4967 25.2786 97.2337 25.4609 97.041 25.6953C96.8483 25.9245 96.752 26.2214 96.752 26.5859C96.752 27.1068 96.9421 27.5 97.3223 27.7656C97.7025 28.0312 98.1868 28.1641 98.7754 28.1641ZM110.049 22.9687V30H107.221V18H109.924V20.0391H110.064C110.34 19.3672 110.781 18.8333 111.385 18.4375C111.994 18.0417 112.747 17.8438 113.643 17.8438C114.471 17.8438 115.192 18.0208 115.807 18.375C116.426 18.7292 116.906 19.2422 117.244 19.9141C117.588 20.5859 117.757 21.401 117.752 22.3594V30H114.924V22.7969C114.924 21.9948 114.715 21.3672 114.299 20.9141C113.887 20.4609 113.317 20.2344 112.588 20.2344C112.093 20.2344 111.653 20.3437 111.268 20.5625C110.887 20.776 110.588 21.0859 110.369 21.4922C110.156 21.8984 110.049 22.3906 110.049 22.9687ZM126.209 30V14H132.209C133.438 14 134.469 14.2135 135.303 14.6406C136.141 15.0677 136.774 15.6667 137.201 16.4375C137.633 17.2031 137.85 18.0964 137.85 19.1172C137.85 20.1432 137.631 21.0339 137.193 21.7891C136.761 22.5391 136.123 23.1198 135.279 23.5312C134.436 23.9375 133.399 24.1406 132.17 24.1406H127.896V21.7344H131.779C132.498 21.7344 133.087 21.6354 133.545 21.4375C134.003 21.2344 134.342 20.9401 134.561 20.5547C134.785 20.1641 134.896 19.6849 134.896 19.1172C134.896 18.5495 134.785 18.0651 134.561 17.6641C134.337 17.2578 133.995 16.9505 133.537 16.7422C133.079 16.5286 132.488 16.4219 131.764 16.4219H129.107V30H126.209ZM134.475 22.75L138.436 30H135.201L131.311 22.75H134.475ZM148.041 24.9531V18H150.869V30H148.127V27.8672H148.002C147.731 28.5391 147.286 29.0885 146.666 29.5156C146.051 29.9427 145.294 30.1563 144.393 30.1563C143.606 30.1563 142.911 29.9818 142.307 29.6328C141.708 29.2786 141.239 28.7656 140.9 28.0938C140.562 27.4167 140.393 26.599 140.393 25.6406V18H143.221V25.2031C143.221 25.9635 143.429 26.5677 143.846 27.0156C144.262 27.4635 144.809 27.6875 145.486 27.6875C145.903 27.6875 146.307 27.5859 146.697 27.3828C147.088 27.1797 147.408 26.8776 147.658 26.4766C147.913 26.0703 148.041 25.5625 148.041 24.9531ZM153.777 30V18H156.48V20.0391H156.621C156.871 19.3516 157.285 18.8151 157.863 18.4297C158.441 18.0391 159.132 17.8438 159.934 17.8438C160.746 17.8438 161.431 18.0417 161.988 18.4375C162.551 18.8281 162.947 19.362 163.176 20.0391H163.301C163.566 19.3724 164.014 18.8411 164.645 18.4453C165.28 18.0443 166.033 17.8438 166.902 17.8438C168.007 17.8438 168.908 18.1927 169.605 18.8906C170.303 19.5885 170.652 20.6068 170.652 21.9453V30H167.816V22.3828C167.816 21.638 167.618 21.0937 167.223 20.75C166.827 20.401 166.342 20.2266 165.77 20.2266C165.087 20.2266 164.553 20.4401 164.168 20.8672C163.788 21.2891 163.598 21.8385 163.598 22.5156V30H160.824V22.2656C160.824 21.6458 160.637 21.151 160.262 20.7812C159.892 20.4115 159.408 20.2266 158.809 20.2266C158.402 20.2266 158.033 20.3307 157.699 20.5391C157.366 20.7422 157.1 21.0312 156.902 21.4062C156.704 21.776 156.605 22.2083 156.605 22.7031V30H153.777ZM176.975 30.2422C176.214 30.2422 175.529 30.1068 174.92 29.8359C174.316 29.5599 173.837 29.1536 173.482 28.6172C173.133 28.0807 172.959 27.4193 172.959 26.6328C172.959 25.9557 173.084 25.3958 173.334 24.9531C173.584 24.5104 173.925 24.1562 174.357 23.8906C174.79 23.625 175.277 23.4245 175.818 23.2891C176.365 23.1484 176.93 23.0469 177.514 22.9844C178.217 22.9115 178.787 22.8464 179.225 22.7891C179.662 22.7266 179.98 22.6328 180.178 22.5078C180.381 22.3776 180.482 22.1771 180.482 21.9062V21.8594C180.482 21.2708 180.308 20.8151 179.959 20.4922C179.61 20.1693 179.107 20.0078 178.451 20.0078C177.758 20.0078 177.209 20.1589 176.803 20.4609C176.402 20.763 176.131 21.1198 175.99 21.5312L173.35 21.1562C173.558 20.4271 173.902 19.8177 174.381 19.3281C174.86 18.8333 175.446 18.4635 176.139 18.2187C176.831 17.9688 177.597 17.8438 178.436 17.8438C179.014 17.8438 179.589 17.9115 180.162 18.0469C180.735 18.1823 181.258 18.4062 181.732 18.7187C182.206 19.026 182.587 19.4453 182.873 19.9766C183.165 20.5078 183.311 21.1719 183.311 21.9687V30H180.592V28.3516H180.498C180.326 28.6849 180.084 28.9974 179.771 29.2891C179.464 29.5755 179.076 29.8073 178.607 29.9844C178.144 30.1563 177.6 30.2422 176.975 30.2422ZM177.709 28.1641C178.277 28.1641 178.769 28.0521 179.186 27.8281C179.602 27.599 179.923 27.2969 180.146 26.9219C180.376 26.5469 180.49 26.138 180.49 25.6953V24.2812C180.402 24.3542 180.251 24.4219 180.037 24.4844C179.829 24.5469 179.594 24.6016 179.334 24.6484C179.074 24.6953 178.816 24.737 178.561 24.7734C178.305 24.8099 178.084 24.8411 177.896 24.8672C177.475 24.9245 177.097 25.0182 176.764 25.1484C176.43 25.2786 176.167 25.4609 175.975 25.6953C175.782 25.9245 175.686 26.2214 175.686 26.5859C175.686 27.1068 175.876 27.5 176.256 27.7656C176.636 28.0312 177.12 28.1641 177.709 28.1641ZM188.982 22.9687V30H186.154V14H188.92V20.0391H189.061C189.342 19.362 189.777 18.8281 190.365 18.4375C190.959 18.0417 191.714 17.8438 192.631 17.8438C193.464 17.8438 194.191 18.0182 194.811 18.3672C195.43 18.7161 195.91 19.2266 196.248 19.8984C196.592 20.5703 196.764 21.3906 196.764 22.3594V30H193.936V22.7969C193.936 21.9896 193.727 21.362 193.311 20.9141C192.899 20.4609 192.321 20.2344 191.576 20.2344C191.076 20.2344 190.628 20.3437 190.232 20.5625C189.842 20.776 189.535 21.0859 189.311 21.4922C189.092 21.8984 188.982 22.3906 188.982 22.9687Z" fill="white"/>
</svg>
